<?xml version="1.0" encoding="utf-8"?>
<!-- Generator: Adobe Illustrator 19.0.0, SVG Export Plug-In . SVG Version: 6.00 Build 0)  -->
<svg version="1.1" id="layer" xmlns="http://www.w3.org/2000/svg" xmlns:xlink="http://www.w3.org/1999/xlink" x="0px" y="0px"
	 viewBox="-253 -46 852 652" style="enable-background:new -153 -46 652 652;" xml:space="preserve">
<style type="text/css">
	.st0{fill:#004097;}
	.st1{fill:#FFF000;}
	.st2{fill:#D2D2D3;}
</style>
<rect x="276.9" y="255.4" class="st0" width="226.6" height="151.6"/>
<path class="st1" d="M392.6,277h7.9l-6.4,5l2.5,7.8l-6.3-4.8l-6.3,4.8l2.5-7.8l-6.4-5h7.9l2.4-7.7L392.6,277 M392.9,378l-2.3-7.4
	l-2.4,7.4h-7.9l6.4,4.8l-2.5,7.5l6.3-4.7l6.3,4.7l-2.5-7.5l6.4-4.8H392.9 M417.9,371.3l-2.3-7.4l-2.4,7.4h-7.9l6.4,4.8l-2.5,7.6
	l6.3-4.7l6.3,4.7l-2.5-7.6l6.4-4.8H417.9 M417.9,283.7l-2.3-7.4l-2.4,7.4h-7.9l6.4,4.8l-2.5,7.6l6.3-4.7l6.3,4.7l-2.5-7.6l6.4-4.8
	H417.9 M436.4,302.3l-2.3-7.4l-2.4,7.4h-7.9l6.4,4.8l-2.5,7.6l6.3-4.7l6.3,4.7L438,307l6.4-4.8H436.4 M436.4,353l-2.3-7.4l-2.4,7.4
	h-7.9l6.4,4.8l-2.5,7.6l6.3-4.7l6.3,4.7l-2.5-7.6l6.4-4.8H436.4 M443.4,327.3l-2.3-7.4l-2.4,7.4h-7.9l6.4,4.8l-2.5,7.6l6.3-4.7
	l6.3,4.7l-2.5-7.6l6.4-4.8H443.4 M367.1,283.8l-2.3-7.4l-2.4,7.4h-7.9l6.4,4.8l-2.5,7.6l6.3-4.7l6.3,4.7l-2.5-7.6l6.4-4.8H367.1
	 M349.1,302.3l-2.3-7.4l-2.4,7.4h-7.9l6.4,4.8l-2.5,7.6l6.3-4.7l6.3,4.7l-2.4-7.6l6.3-4.8H349.1 M342.4,327.3L340,320l-2.4,7.4h-7.9
	l6.4,4.8l-2.5,7.6l6.3-4.7l6.3,4.7l-2.5-7.6l6.4-4.8H342.4 M349.1,353.1l-2.3-7.4l-2.4,7.4h-7.9l6.4,4.8l-2.5,7.6l6.3-4.7l6.3,4.7
	l-2.4-7.6l6.3-4.8H349.1 M367.4,371.4L365,364l-2.4,7.4h-7.9l6.4,4.8l-2.5,7.6l6.3-4.7l6.3,4.7l-2.5-7.6l6.4-4.8H367.4"/>
<path class="st0" d="M-208.5,407.3h67.7v14.2h-51.3V458h41.8v14.2h-41.8v37.5h54.1v14.2h-70.5V407.3 M-122.7,440.4v53.5
	c0,22.1,9.7,32,28.6,32c16.3,0,27.2-10.9,30.7-19.1h0.3c0,0-0.3,2.6-0.3,6.1v11.1h15.5v-83.5h-16v39.1C-63.9,496-74,511-91,511
	c-13.4,0-15.7-9.2-15.7-20.8v-49.9H-122.7 M-27.1,440.4v83.5h16v-34.2c0-5.1,0.5-10.2,2-15C-5.3,462.3,4.1,455,14.3,455
	c2.5,0,4.6,0.5,4.6,0.5v-15.8c0,0-2-0.3-4.1-0.3c-12.9,0-22.6,9.6-26.4,21.8h-0.3c0,0,0.3-2.8,0.3-6.3v-14.5H-27.1 M68.9,438.4
	c-24.9,0-45.1,18.3-45.1,43.6c0,25.4,20.1,43.9,45.1,43.9c24.9,0,45.1-18.5,45.1-43.9C114,456.7,93.9,438.4,68.9,438.4 M40.2,482
	c0-17.3,13-29.7,28.7-29.7c15.8,0,28.7,12.4,28.7,29.7c0,17.5-12.9,30-28.7,30C53.3,512,40.2,499.5,40.2,482z M132.7,454.4v69.5
	h15.8v-69.5h19.8v-12.9h-19.8v-3.6c0-15.5,11.4-17.5,17.5-17.5c2.5,0,4.1,0.3,4.1,0.3V407c0,0-2.5-0.5-6.1-0.5
	c-10.6,0-31.4,3.5-31.4,31v4h-10.4v12.9H132.7 M218.3,438.4c-24.9,0-45.1,18.3-45.1,43.6c0,25.4,20.1,43.9,45.1,43.9
	c24.9,0,45.1-18.5,45.1-43.9C263.4,456.7,243.2,438.4,218.3,438.4 M189.6,482c0-17.3,13-29.7,28.7-29.7c15.8,0,28.7,12.4,28.7,29.7
	c0,17.5-12.9,30-28.7,30C202.6,512,189.6,499.5,189.6,482z M276.9,440.4v53.5c0,22.1,9.7,32,28.6,32c16.3,0,27.2-10.9,30.7-19.1h0.3
	c0,0-0.3,2.6-0.3,6.1v11.1h15.5v-83.5h-16v39.1c0,16.5-10.1,31.5-27.1,31.5c-13.4,0-15.7-9.2-15.7-20.8v-49.9H276.9 M372.5,440.4
	v83.5h16v-39.1c0-4.1,0.3-7.9,1.3-11.2c3.5-12.1,13.7-20.5,26.4-20.5c13.4,0,15.8,9.2,15.8,21v49.9h16v-53.5c0-21.3-9.1-32-28.7-32
	c-18.2,0-28.1,11.9-31.4,19.1h-0.3c0,0,0.3-2.8,0.3-6.1v-11.1H372.5 M500.1,438.4c-22.1,0-37.8,17.2-37.8,43.7
	c0,25.9,14.2,43.7,36.8,43.7c20.6,0,27.4-15.5,27.4-15.5h0.3c0,0-0.2,2.3-0.2,5.6v7.9h15.2V407.3h-16V446c0,3.1,0.3,5.6,0.3,5.6
	h-0.3C525.8,451.6,519.4,438.4,500.1,438.4 M478.6,482.1c0-19,10.9-29.9,24.1-29.9c15.8,0,23.6,14.9,23.6,29.7
	c0,21.3-11.7,30-24.1,30C488.4,512,478.6,500.3,478.6,482.1z"/>
<path class="st2" d="M523.7,153.7c28.1,28.1,28.1,73.7,0,101.7l-15,15v-20.3h-62.5l36-36.1c5.2-5.3,5.2-13.8,0-19L376.3,89.2
	c-5.3-5.3-13.8-5.3-19,0L251.1,195.3c-5.3,5.2-5.3,13.8,0,19l16.8,16.9l-41.3,41.4l-12-11.9l-5-5.1c-28.1-28.1-28.1-73.6,0-101.7
	L315.9,47.6c28.1-28.1,73.6-28.1,101.7,0L523.7,153.7 M318.5,213.3l-36.9,36.9H364c23.9-28.2,22.5-70.6-4.1-97.2l-17.5-17.6
	L301,176.7l17.5,17.5C323.8,199.5,323.8,208,318.5,213.3 M271.6,260.2l-59.2,59.2c-5.2,5.2-13.8,5.2-19,0L87.5,213.5
	c-5.2-5.2-5.2-13.8,0-19L193.6,88.4c5.2-5.2,13.8-5.2,19,0l16,15.9l41.3-41.4l-16-16c-28.1-28.1-73.6-28.1-101.7,0L45.9,153.2
	c-28.1,28.1-28.1,73.6,0,101.7l94.4,94.4l11.6,11.7c28.1,28.1,73.6,28.1,101.7,0l3.7-3.7l14.2-14.2V260.2"/>
</svg>
